<svg width="190" height="188" viewBox="0 0 190 188" fill="none" xmlns="http://www.w3.org/2000/svg">
<path d="M91.725 1.59282C93.3253 -0.530664 96.5136 -0.530661 98.1139 1.59282L113.942 22.5961C115.005 24.0061 116.866 24.5527 118.523 23.941L143.194 14.8294C145.688 13.9082 148.37 15.6319 148.568 18.2835L150.529 44.5101C150.66 46.2708 151.931 47.7369 153.655 48.1177L179.335 53.7907C181.932 54.3643 183.256 57.2645 181.989 59.6023L169.46 82.7254C168.618 84.2777 168.894 86.198 170.139 87.4504L188.676 106.107C190.55 107.993 190.096 111.149 187.767 112.431L164.724 125.109C163.178 125.96 162.372 127.725 162.741 129.451L168.249 155.168C168.806 157.768 166.718 160.177 164.065 159.996L137.827 158.204C136.065 158.084 134.433 159.133 133.811 160.785L124.541 185.397C123.604 187.885 120.545 188.784 118.411 187.197L97.3062 171.504C95.8894 170.45 93.9494 170.45 92.5326 171.504L71.428 187.197C69.2943 188.784 66.2352 187.885 65.2979 185.397L56.028 160.785C55.4057 159.133 53.7736 158.084 52.0122 158.204L25.7735 159.996C23.1207 160.177 21.0328 157.768 21.5897 155.168L27.0975 129.451C27.4672 127.725 26.6613 125.96 25.1144 125.109L2.0723 112.431C-0.257311 111.149 -0.711049 107.993 1.16307 106.107L19.7 87.4504C20.9444 86.198 21.2205 84.2777 20.3793 82.7254L7.84942 59.6023C6.58262 57.2645 7.90709 54.3643 10.5035 53.7907L36.1841 48.1177C37.9081 47.7369 39.1785 46.2708 39.3102 44.5101L41.2707 18.2835C41.4689 15.6319 44.151 13.9082 46.6453 14.8294L71.3163 23.941C72.9725 24.5527 74.8339 24.0061 75.8966 22.5961L91.725 1.59282Z" fill="#F5F900"/>
</svg>
